<svg xmlns="http://www.w3.org/2000/svg" width="500" height="495.4"><path d="M413.6 0c-11.5 6.1-22.7 15.5-32.3 27.2-11.2 13.7-20.4 30.4-27.2 49.6-11.4 32.3-20.8 58.3-27.8 69-1.5 2.4-4.8 4.7-8.6 4.7s-6.9-1.9-8.8-5c-1.8-3-7-16.1-10.8-31.7L287.2 72c-5.9-21.1-24.8-34.3-46-34.3-20.4 0-36.1 12.3-44.3 31 0 0-18.6 46.2-23.2 51.8-2.1 2.5-4.9 4.4-8.4 4.4-3.7 0-6.9-1.9-8.7-4.8-7.9-14.9-7.3-39.2-13.1-58C134 31.3 117.6 18.2 98.1 13l-8.2 35.7c12.9 4.4 19 17.7 22.4 44.2 2.2 16.9 5.7 31 9.8 40.7 7.4 16.3 24.5 28 43.6 28 18.8 0 32-11.1 38.7-20.3 1.5-2.1 2.7-4.1 3.6-5.9.9-1.8 2.6-4.2 3.9-7.1 6.1-13.7 15.3-37.4 19.9-46 2.6-5 5.7-7.6 9.9-7.6s8.3 1.7 10.2 7.6c4.5 14.1 15.7 66.1 25.4 82 8.2 13.7 23.2 22.9 40.3 22.9 18.5 0 34.5-10.7 42.2-26.2 10.2-20.2 15.5-34 28.9-71.8 13.6-38.3 34-52.4 42.1-56.6zM52.5 249.2L38 301.1H21.2L0 225.2h16l14.3 55.6L45 225.2h15.7l14.8 55.6 14.1-55.6h15.1L84 301.1H66.9zm55.2-15.6c0-4.7 3.7-8.4 8.3-8.4 4.7 0 8.3 3.7 8.3 8.4 0 4.6-3.6 8.2-8.3 8.2-4.5 0-8.3-3.7-8.3-8.2m15.3 67.5h-13.9v-55.5H123zm8.7-75.9h13.9v75.9h-13.9zm65.4 70.4c-3.3 3.5-9.3 6.4-16.4 6.4-17.2 0-28.6-11.8-28.6-28.5 0-16.1 11.4-28.8 28.1-28.8 7.1 0 12.6 2.3 16 5.4v-24.9h13.9v75.9h-13zm-15.8-6c9.3 0 15.2-7.1 15.2-16.3 0-9.2-6.1-16.3-15.2-16.3-9.3 0-15.4 7.1-15.4 16.3.1 9.4 6.4 16.3 15.4 16.3m191.3-11.3c.7 7.4 5.9 11.8 13.8 11.8 7 0 11.1-3.7 14-8.3l8.8 8.8c-3.8 6.1-11 11.8-22.8 11.8-16.8 0-28.4-10.9-28.4-28.5 0-16.6 11.2-28.8 27.3-28.8 16.7 0 27.2 10.9 27.2 27.5v5.7zm.3-10.5H398c-.6-6.2-5.3-11-12.9-11-7 0-11.5 4.7-12.2 11m-79.1 96.7c.7 7.4 5.9 11.8 13.8 11.8 7.1 0 11.1-3.7 14-8.3l8.8 8.8c-3.8 6.1-11 11.8-22.8 11.8-16.8 0-28.4-10.9-28.4-28.5 0-16.6 11.2-28.8 27.3-28.8 16.7 0 27.2 10.9 27.2 27.5v5.7zm.3-10.5h25.1c-.6-6.2-5.3-11-12.9-11-7 0-11.4 4.7-12.2 11M231 278.3c.7 7.4 5.9 11.8 13.8 11.8 7.1 0 11.1-3.7 14-8.3l8.8 8.8c-3.8 6.1-11 11.8-22.8 11.8-16.8 0-28.4-10.9-28.4-28.5 0-16.6 11.2-28.8 27.3-28.8 16.7 0 27.2 10.9 27.2 27.5 0 1.3 0 3.3-.2 5.7zm.3-10.5h25.1c-.6-6.2-5.3-11-12.9-11-7 0-11.5 4.7-12.2 11m70.5-7.9h-3.5c-5.4 0-7.3 2.6-7.3 7.4v33.8h-13.9v-55.5H291v4.5c2-2.8 5.1-4.7 10.8-4.7zm35.9 6.3c0-5.4-2.4-8.8-7.5-8.8-5 0-7.7 3.5-7.7 8.8v35h-13.9v-55.5h13.9v4.1c1.3-1.7 4.9-4.8 11.7-4.8 13 0 17.3 8.8 17.3 19.5v36.6h-13.9v-34.9zm98 36.1c10 0 20.2-5.3 20.2-17.3 0-8.6-4.8-13.6-12.8-16.1-2.2-.7-13.2-2.8-13.2-8.6 0-3 2.3-5 5.8-5 3.8 0 6.1 2.1 6.6 6h12.4c-.6-10.4-7.3-16.4-18.6-16.4-11 0-18.9 6.8-18.9 16.2 0 7.8 4.1 13.6 11.5 16.3 2.9 1.1 5.3 1.7 8.6 2.6 4.2 1.1 5.5 2.8 5.5 6.1 0 3.2-2.8 5.4-6.9 5.4-4.3 0-6.7-2.2-7-6.6H416c.6 15.1 12.6 17.4 19.7 17.4m44.1-.2c10 0 20.2-5.3 20.2-17.3 0-8.6-4.8-13.6-12.8-16.1-2.2-.7-13.2-2.8-13.2-8.6 0-3 2.3-5 5.8-5 3.8 0 6.1 2.1 6.6 6h12.4c-.6-10.4-7.3-16.4-18.6-16.4-11 0-18.9 6.8-18.9 16.2 0 7.8 4.1 13.6 11.5 16.3 2.9 1.1 5.3 1.7 8.6 2.6 4.2 1.1 5.5 2.8 5.5 6.1 0 3.2-2.8 5.4-6.9 5.4-4.3 0-6.7-2.2-7-6.6h-12.9c.7 15.1 12.7 17.4 19.7 17.4m-250.3 86.3c-15.9 0-28.7-12.9-28.7-28.7 0-15.9 12.9-28.8 28.7-28.8 9.2 0 17.8 4.4 23.2 11.7l-9.6 8.2c-3-4.6-8.1-7.4-13.6-7.4-8.9 0-16.2 7.3-16.2 16.2 0 8.9 7.3 16.2 16.2 16.2 5.5 0 10.6-2.8 13.6-7.4l9.3 8.6c-5.5 7.2-13.9 11.4-22.9 11.4m-61.7-.1c-15.9 0-28.8-12.9-28.8-28.7 0-15.8 12.9-28.7 28.8-28.7s28.7 12.9 28.7 28.7c0 15.8-12.9 28.7-28.7 28.7m0-44.9c-8.9 0-16.2 7.3-16.2 16.2 0 8.9 7.3 16.2 16.2 16.2 8.9 0 16.2-7.3 16.2-16.2 0-8.9-7.3-16.2-16.2-16.2m89.8-22.1c0-4.7 3.7-8.4 8.3-8.4 4.7 0 8.3 3.7 8.3 8.4 0 4.6-3.6 8.2-8.3 8.2-4.6 0-8.3-3.7-8.3-8.2m15.3 66.4H259V333h13.9zM356 333h8.5v10.9H356v25.9c0 4.2 1.4 5.9 5.3 5.9h3.2v11.8c-.3 0-2.8.7-7.6.7-10.5 0-14.9-5.3-14.9-14.5v-29.8h-5.2V333h5.2v-9.6h14zm26.4 72.9l7.5-20.3-21-52.6h15.4l12.7 33.7 12.2-33.7h14.4l-27.7 72.9zM133 334.2c-1.2-8.9-6.6-20.9-25.4-20.9-13.6 0-25.6 9.8-25.6 22.6 0 10.9 7.9 17.9 19.4 20.3l10.1 2c5.6 1.1 8.8 4.8 8.8 9 0 5.1-4.2 8.9-11.7 8.9-9.1 0-13-5.1-14.4-11.2H80.5c0 12.1 9.2 23.7 27.9 23.7 18 0 26.1-11.2 26.1-22.3 0-10.2-6.5-18.7-19.7-21.2l-10.1-1.9c-5.3-1-8.3-4.2-8.3-8.2 0-4.8 4.5-9.2 11.3-9.2 8.5 0 11.3 5.3 11.9 9.3h13.5zm-30.5 151.9v-36.6h7.3v29.7h12.1v6.9zm22.9-34.3c0-2.4 1.9-4.3 4.2-4.3 2.4 0 4.2 1.9 4.2 4.3 0 2.3-1.9 4.2-4.2 4.2-2.3 0-4.2-1.9-4.2-4.2m7.8 34.3h-7.1v-28.3h7.1zm13.5-28.3h4.2v6h-4.2v22.3h-7.1v-22.3H137v-6h2.6v-1.3c0-5.6 2.2-9.2 9-9.2.4 0 1.6 0 2.3.1v5.9h-1.3c-2.4 0-2.9 1.5-2.9 3.2zm13.1 16.5c.4 3.8 3 6 7 6 3.6 0 5.7-1.9 7.1-4.2l5.2 3.2c-1.7 3.5-5.5 7.4-12.4 7.4-8.6 0-14.5-5.6-14.5-14.6 0-8.5 5.7-14.7 13.9-14.7 8.5 0 13.9 5.6 13.9 14 0 .7 0 1.7-.1 2.9zm.2-5.4h12.8c-.3-3.2-2.7-5.6-6.6-5.6-3.6 0-5.9 2.4-6.2 5.6m22 13.3c0-2.6 1.9-4.6 4.5-4.6s4.5 2 4.5 4.6c0 2.5-1.9 4.6-4.5 4.6-2.6-.1-4.5-2.1-4.5-4.6m60.8-6.6c0 2.8 1.1 4.5 3.7 4.5 2.5 0 3.9-1.8 3.9-4.6v-17.7h7.1v28.3h-7V484c-.7 1-2.6 2.4-5.9 2.4-6.3 0-8.8-4.2-8.8-10v-18.6h7.1v17.8zm27 19.8h-7.1v-37.6h6.7v2.7c1.4-1.4 4.2-3.2 8.7-3.2 8.6 0 14.2 6 14.2 14.6 0 8.2-5.5 14.7-14.5 14.7-3.8 0-6.6-1.5-8-2.8zm7.6-15.1c4.8 0 7.8-3.5 7.8-8.3 0-4.8-3.1-8.4-7.8-8.4-4.8 0-7.8 3.5-7.8 8.4 0 4.8 3.1 8.3 7.8 8.3m26.1 15.1h-7.1v-37.6h6.7v2.7c1.4-1.4 4.2-3.2 8.7-3.2 8.6 0 14.2 6 14.2 14.6 0 8.2-5.5 14.7-14.5 14.7-3.8 0-6.6-1.5-8-2.8zm7.7-15.1c4.8 0 7.8-3.5 7.8-8.3 0-4.8-3.1-8.4-7.8-8.4-4.8 0-7.8 3.5-7.8 8.4-.1 4.8 3 8.3 7.8 8.3m32.7-23c9 0 14.8 6.2 14.8 14.6 0 8.3-6.1 14.7-14.8 14.7-8.8 0-14.8-6.2-14.8-14.6 0-8.4 6.3-14.7 14.8-14.7m0 22.9c4.7 0 7.7-3.5 7.7-8.2 0-4.7-3.2-8.3-7.7-8.3-4.7 0-7.7 3.5-7.7 8.3 0 4.8 3.2 8.2 7.7 8.2m31.5-15.1h-1.8c-2.8 0-3.7 1.3-3.7 3.8v17.3h-7.1v-28.3h7.1v2.3c1-1.4 2.6-2.4 5.5-2.4zm13.7-7.3h4.3v6h-4.3V477c0 2.1.7 3 2.7 3h1.6v6c-.2 0-1.4.4-3.9.4-5.4 0-7.6-2.7-7.6-7.4v-15.2h-2.6v-6h2.6v-4.4h7.1v4.4zm8.1 24.4c0-2.6 1.9-4.6 4.5-4.6s4.5 2 4.5 4.6c0 2.5-1.9 4.6-4.5 4.6-2.6-.1-4.5-2.1-4.5-4.6m-166.3-22.8c-.6-4.5-3.3-10.6-12.9-10.6-6.9 0-13 5-13 11.5 0 5.5 4 9.1 9.8 10.3l5.1 1c2.8.6 4.4 2.4 4.4 4.5 0 2.6-2.1 4.5-5.9 4.5-4.6 0-6.6-2.6-7.3-5.7h-6.9c0 6.1 4.7 12 14.2 12 9.1 0 13.2-5.7 13.2-11.3 0-5.2-3.3-9.5-10-10.8l-5.1-1c-2.7-.5-4.2-2.1-4.2-4.2 0-2.4 2.3-4.6 5.7-4.6 4.3 0 5.7 2.7 6 4.7h6.8z" fill="#0f963b"/></svg>